<?xml version="1.0"?>
<svg xmlns="http://www.w3.org/2000/svg" id="Layer_1" data-name="Layer 1" viewBox="0 0 512 512" width="512" height="512"><title>Diskette</title><path d="M86.273,482H425.727C452.194,482,474,460.813,474,434.346V103.626a8.138,8.138,0,0,0-1.968-5.094l-54.548-65.8A7.983,7.983,0,0,0,411.247,30H86.273C59.806,30,38,51.187,38,77.654V434.346C38,460.813,59.806,482,86.273,482ZM354,359H146V322H354ZM146,375H354v91H146Zm0-329H354V165H146ZM54,77.654C54,60.009,68.628,46,86.273,46H130V172.684A8.455,8.455,0,0,0,138.208,181H362.3c4.418,0,7.7-3.9,7.7-8.316V46h37.478L458,106.5V434.346C458,451.991,443.372,466,425.727,466H370V313.907A7.67,7.67,0,0,0,362.3,306H138.208A8.1,8.1,0,0,0,130,313.907V466H86.273C68.628,466,54,451.991,54,434.346Z"/><path d="M308,73a8,8,0,0,0-8-8H268a8,8,0,0,0-8,8v67a8,8,0,0,0,8,8h32a8,8,0,0,0,8-8Zm-16,58H276V81h16Z"/></svg>
